<?xml version="1.0" encoding="utf-8"?>
<!-- Generator: Adobe Illustrator 17.0.0, SVG Export Plug-In . SVG Version: 6.00 Build 0)  -->
<!DOCTYPE svg PUBLIC "-//W3C//DTD SVG 1.1//EN" "http://www.w3.org/Graphics/SVG/1.1/DTD/svg11.dtd">
<svg version="1.1" id="Capa_1" xmlns="http://www.w3.org/2000/svg" xmlns:xlink="http://www.w3.org/1999/xlink" x="0px" y="0px"
	 width="115.116px" height="100px" viewBox="0 0 115.116 100" enable-background="new 0 0 115.116 100" xml:space="preserve">
<g id="XMLID_2_">
	<g id="XMLID_31_">
		<path id="XMLID_34_" fill="#00A5E3" d="M61.195,70.762H46.961l-3.927-12.074H19.571l-3.827,12.074H1.51l22.38-64.004
			c0.983-2.223,2.077-3.763,3.289-4.613c1.21-0.85,2.7-1.276,4.467-1.276c1.767,0,3.191,0.392,4.27,1.178
			c1.079,0.784,2.045,2.356,2.895,4.711L61.195,70.762z M39.892,47.202l-8.245-27.683l-8.639,27.683H39.892z"/>
		<path id="XMLID_32_" fill="#00A5E3" d="M62.095,37.878v-8.639c0-9.097,2.388-16.198,7.165-21.303S80.649,0.28,89.091,0.28
			s15.215,2.55,20.32,7.656c3.598,3.6,5.399,8.998,5.399,16.198h-12.761c0-7.789-4.157-11.682-12.468-11.682
			c-2.488,0-4.598,0.475-6.332,1.424s-3.026,2.045-3.876,3.287c-0.852,1.244-1.508,3.077-1.964,5.497
			c-0.458,2.422-0.722,4.452-0.786,6.086c-0.066,1.638-0.099,3.829-0.099,6.579c0,2.748,0.017,4.598,0.049,5.546
			c0.032,0.949,0.131,2.488,0.296,4.613c0.163,2.129,0.424,3.649,0.786,4.566c0.358,0.917,0.882,2.094,1.57,3.533
			c0.687,1.441,1.555,2.454,2.602,3.043c2.683,1.702,5.726,2.553,9.129,2.553c5.694,0,9.718-2.42,12.074-7.264v-4.713h-8.442V35.816
			h20.123v21.106c-2.028,4.778-5.236,8.377-9.619,10.797c-4.386,2.422-9.36,3.632-14.922,3.632c-9.883,0-17.031-2.762-21.449-8.294
			C64.303,57.528,62.095,49.133,62.095,37.878z"/>
	</g>
	<rect id="XMLID_30_" x="0.306" y="78.962" fill="#B4B4B3" width="111.762" height="1.096"/>
	<path id="XMLID_29_" fill="#00A5E3" d="M11.04,87.717l-0.09-0.023l-0.061-0.012l-0.112-0.018c-0.484-0.041-0.945,0.232-1.134,0.661
		L6.25,95.809l-3.4-7.477c-0.192-0.434-0.642-0.706-1.136-0.668l-0.117,0.018l-0.061,0.013l-0.092,0.024
		c-0.468,0.154-0.783,0.587-0.783,1.077V99.72h2.289v-5.645l2.251,4.951c0.172,0.402,0.584,0.662,1.05,0.662
		c0.467,0,0.878-0.258,1.04-0.642l2.253-4.972l0.009,5.646h2.289l-0.016-10.925C11.827,88.303,11.511,87.87,11.04,87.717z"/>
	<path id="XMLID_28_" fill="#B4B4B3" d="M24.545,87.681c-0.466,0-0.877,0.259-1.046,0.653l-4.3,9.788l-0.687,1.597h2.507
		l3.528-8.075l3.226,7.334l0.245,0.741h2.568l-4.992-11.376C25.423,87.942,25.011,87.681,24.545,87.681z"/>
	<path id="XMLID_25_" fill="#B4B4B3" d="M44.905,94.222c1.063-0.657,1.747-1.775,1.747-2.967c0-1.988-1.77-3.604-3.949-3.604
		l-4.294,0.015c-0.642,0-1.144,0.502-1.144,1.143L37.248,99.72h2.29v-4.89h2.809c0.56,0.409,1.13,1.036,2.069,4.11l0.329,0.78h2.317
		l-0.457-1.485C45.948,96.119,45.425,94.973,44.905,94.222z M42.72,92.54l-3.182,0.011V89.94h3.168c0.913,0,1.656,0.59,1.656,1.315
		C44.363,91.952,43.611,92.54,42.72,92.54z"/>
	<polygon id="XMLID_24_" fill="#B4B4B3" points="65.342,87.65 62.006,87.65 56.898,92.54 56.795,92.54 56.795,87.65 54.506,87.65 
		54.506,99.72 56.795,99.72 56.795,94.83 56.898,94.83 61.662,99.387 61.998,99.72 65.329,99.72 59.005,93.685 63.256,89.623 	"/>
	<path id="XMLID_23_" fill="#B4B4B3" d="M71.17,88.795v9.78c0,0.642,0.503,1.145,1.145,1.145h7.961v-2.289h-6.817V94.83h4.994V92.54
		h-4.994V89.94h6.817V87.65h-7.961C71.673,87.65,71.17,88.153,71.17,88.795z"/>
	<polygon id="XMLID_22_" fill="#B4B4B3" points="86.945,89.94 90.665,89.94 90.665,99.72 92.953,99.72 92.953,89.94 96.644,89.94 
		96.644,87.65 86.945,87.65 	"/>
	<path id="XMLID_21_" fill="#B4B4B3" d="M108.063,92.568c-0.915-0.343-2.446-0.916-2.446-1.328c0-0.705,0.894-1.3,1.952-1.3
		c1.058,0,1.952,0.595,1.952,1.3v1.145h2.289V91.24c0-1.979-1.903-3.589-4.242-3.589c-2.339,0-4.242,1.611-4.242,3.595
		c0.012,2.018,2.149,2.817,4.036,3.521c0.924,0.345,2.47,0.922,2.47,1.363c0,0.589-1.01,1.3-2.264,1.3
		c-1.334,0-2.264-0.685-2.264-1.3v-1.145h-2.289v1.145c0,1.979,2.042,3.59,4.553,3.59c2.468,0,4.553-1.643,4.553-3.584
		C112.134,94.093,109.971,93.283,108.063,92.568z"/>
	<rect id="XMLID_3_" x="21.052" y="94.976" fill="#B4B4B3" width="7.113" height="2.052"/>
</g>
</svg>
